HIERARCHY
ROOT Hips
{
	OFFSET	0.00	0.00	0.00
	CHANNELS 6 Xposition Yposition Zposition Zrotation Xrotation Yrotation
	JOINT LeftUpLeg
	{
		OFFSET	 0.126116	-0.014019	-0.065224
		CHANNELS 3 Zrotation Xrotation Yrotation
		JOINT LeftLeg
		{
			OFFSET	 0.000000	 0.000000	 0.569914
			CHANNELS 3 Zrotation Xrotation Yrotation
			JOINT LeftFoot
			{
				OFFSET	 0.000000	 0.000000	 0.544423
				CHANNELS 3 Zrotation Xrotation Yrotation
				JOINT LeftToeBase
				{
					OFFSET	 0.000000	 0.000000	 0.207117
					CHANNELS 3 Zrotation Xrotation Yrotation
					End Site
					{
						OFFSET	 0.000000	 0.000000	 0.207117
					}
				}
			}
		}
	}
	JOINT RightUpLeg
	{
		OFFSET	-0.124023	-0.008373	-0.065224
		CHANNELS 3 Zrotation Xrotation Yrotation
		JOINT RightLeg
		{
			OFFSET	 0.000000	 0.000000	 0.570047
			CHANNELS 3 Zrotation Xrotation Yrotation
			JOINT RightFoot
			{
				OFFSET	 0.000000	 0.000000	 0.544354
				CHANNELS 3 Zrotation Xrotation Yrotation
				JOINT RightToeBase
				{
					OFFSET	 0.000000	 0.000000	 0.207540
					CHANNELS 3 Zrotation Xrotation Yrotation
					End Site
					{
						OFFSET	 0.000000	 0.000000	 0.207540
					}
				}
			}
		}
	}
	JOINT Spine
	{
		OFFSET	 0.000184	-0.007763	 0.117403
		CHANNELS 3 Zrotation Xrotation Yrotation
		JOINT Spine1
		{
			OFFSET	 0.000000	 0.000000	 0.137269
			CHANNELS 3 Zrotation Xrotation Yrotation
			JOINT Spine2
			{
				OFFSET	 0.000000	 0.000000	 0.156879
				CHANNELS 3 Zrotation Xrotation Yrotation
				JOINT LeftShoulder
				{
					OFFSET	 0.080501	-0.002496	 0.160144
					CHANNELS 3 Zrotation Xrotation Yrotation
					JOINT LeftArm
					{
						OFFSET	 0.000000	 0.000000	 0.164363
						CHANNELS 3 Zrotation Xrotation Yrotation
						JOINT LeftForeArm
						{
							OFFSET	 0.000000	 0.000000	 0.364576
							CHANNELS 3 Zrotation Xrotation Yrotation
							JOINT LeftHand
							{
								OFFSET	 0.000000	 0.000000	 0.360812
								CHANNELS 3 Zrotation Xrotation Yrotation
								JOINT LeftHandIndex1
								{
									OFFSET	 0.000000	 0.000000	 0.086006
									CHANNELS 3 Zrotation Xrotation Yrotation
									JOINT LeftHandIndex2
									{
										OFFSET	 0.000000	 0.000000	 0.047236
										CHANNELS 3 Zrotation Xrotation Yrotation
										JOINT LeftHandIndex3
										{
											OFFSET	-0.004284	-0.000551	 0.038166
											CHANNELS 3 Zrotation Xrotation Yrotation
											End Site
											{
												OFFSET	-0.004284	-0.000551	 0.038166
											}
										}
									}
								}
							}
						}
					}
				}
				JOINT Neck
				{
					OFFSET	 0.000000	 0.000000	 0.176489
					CHANNELS 3 Zrotation Xrotation Yrotation
					JOINT Head
					{
						OFFSET	 0.000000	-0.001747	 0.077940
						CHANNELS 3 Zrotation Xrotation Yrotation
						End Site
						{
							OFFSET	 0.000000	-0.001747	 0.077940
						}
					}
				}
				JOINT RightShoulder
				{
					OFFSET	-0.080363	 0.000306	 0.159706
					CHANNELS 3 Zrotation Xrotation Yrotation
					JOINT RightArm
					{
						OFFSET	 0.000000	 0.000000	 0.164196
						CHANNELS 3 Zrotation Xrotation Yrotation
						JOINT RightForeArm
						{
							OFFSET	 0.000000	 0.000000	 0.365611
							CHANNELS 3 Zrotation Xrotation Yrotation
							JOINT RightHand
							{
								OFFSET	 0.000000	 0.000000	 0.360648
								CHANNELS 3 Zrotation Xrotation Yrotation
								JOINT RightHandIndex1
								{
									OFFSET	 0.000000	 0.000000	 0.069977
									CHANNELS 3 Zrotation Xrotation Yrotation
									JOINT RightHandIndex2
									{
										OFFSET	 0.000000	 0.000000	 0.052305
										CHANNELS 3 Zrotation Xrotation Yrotation
										JOINT RightHandIndex3
										{
											OFFSET	 0.009002	-0.000782	 0.042196
											CHANNELS 3 Zrotation Xrotation Yrotation
											End Site
											{
												OFFSET	 0.009002	-0.000782	 0.042196
											}
										}
									}
								}
							}
						}
					}
				}
			}
		}
	}
}
MOTION
Frames:    10
Frame Time: 0.03333334
-0.038002	 0.240407	 1.042518	 1.018875	 33.868140	-6.820311	 13.180780	-82.791540	-167.803300	 6.491428	-71.167390	 6.541453	-2.800164	 78.423360	 3.115173	-2.385832	 28.452790	-0.000001	 71.281710	-78.590070	-113.778300	-16.747620	-73.659710	-11.144710	 28.750220	 76.607060	-18.159620	 2.384659	 28.388700	-0.000001	-13.576440	 14.599670	 1.838893	-2.914760	 20.233330	 4.043177	 1.155268	 0.009702	 1.671229	-99.176350	 68.203460	 156.746000	 5.696630	-7.422088	-56.656280	-21.983580	 2.004062	-7.636588	-35.743580	-59.471120	-24.020240	-2.027600	 6.559038	 9.033609	-5.188889	 0.308190	 3.541030	-5.234859	 0.342567	 0.430617	 0.418163	 17.924970	-6.168708	 3.262915	-27.085780	 0.849446	 97.466510	 64.648050	-159.143800	-7.737980	 6.296461	 58.863470	 4.895587	 7.386760	 30.496680	 14.130830	-58.980560	 15.562490	 1.803333	 3.979147	-15.098590	 4.898592	 3.004813	-9.310344	 5.224449	 0.395017	 2.014677
-0.036877	 0.240093	 1.050503	 0.904300	 33.285110	-6.563028	 10.567070	-81.519350	-170.382900	 5.871391	-70.074310	 5.914262	-2.531261	 77.996860	 2.880578	-2.385832	 28.452790	-0.000001	 64.543620	-78.172260	-120.432400	-16.143780	-72.510600	-10.500690	 27.974530	 76.242870	-17.288720	 2.384659	 28.388700	-0.000001	-13.469430	 14.473460	 1.743958	-2.834740	 20.398100	 3.897578	 1.154647	-0.448329	 1.563027	-99.067920	 68.190020	 157.099000	 5.888802	-6.318680	-56.932750	-21.871730	 2.009366	-7.649067	-36.355410	-60.735410	-24.358650	-2.027600	 6.559038	 9.033609	-5.188889	 0.308190	 3.541030	-5.234859	 0.342567	 0.430617	 0.104629	 16.214690	-5.358315	 2.941680	-25.425910	 0.292190	 97.377850	 64.593960	-159.425100	-8.237101	 6.447766	 58.313200	 5.085704	 7.749806	 31.455070	 14.814680	-60.258630	 16.349680	 1.803333	 3.979147	-15.098590	 4.898592	 3.004813	-9.310344	 5.224449	 0.395017	 2.014677
-0.035517	 0.239736	 1.060636	 0.869388	 32.574850	-6.313971	 7.958386	-79.911510	-172.834100	 5.360926	-68.616420	 5.382168	-2.294780	 77.338010	 2.562029	-2.385832	 28.452790	-0.000001	 56.810710	-77.442560	-127.965700	-15.484420	-71.046270	-9.788762	 26.916510	 75.736310	-16.156010	 2.384659	 28.388700	-0.000001	-13.350110	 14.312670	 1.654930	-2.716435	 20.633800	 3.677420	 1.113028	-1.055592	 1.437416	-98.789830	 68.461380	 157.549700	 6.199003	-4.704937	-57.481510	-21.681720	 2.014127	-7.661563	-37.211630	-61.986580	-24.988940	-2.027600	 6.559038	 9.033609	-5.188889	 0.308190	 3.541030	-5.234859	 0.342567	 0.430617	-0.212204	 13.722260	-4.707735	 2.674029	-22.976640	-0.147499	 97.233760	 64.366070	-160.010500	-8.944916	 6.352118	 57.763950	 5.203835	 8.184739	 32.733860	 15.210700	-61.234160	 17.192360	 1.803333	 3.979147	-15.098590	 4.898592	 3.004813	-9.310344	 5.224449	 0.395017	 2.014677
-0.034165	 0.239343	 1.070035	 0.853217	 31.929790	-6.103663	 6.234879	-78.404530	-174.399400	 4.960369	-67.233140	 4.960161	-2.099683	 76.715120	 2.295845	-2.385832	 28.452790	-0.000001	 50.523700	-76.576770	-134.056500	-14.946960	-69.665470	-9.200681	 25.994010	 75.257120	-15.155840	 2.384659	 28.388700	-0.000001	-13.243770	 14.149890	 1.576559	-2.606696	 20.766370	 3.486057	 1.068193	-1.558693	 1.323225	-98.536700	 68.721990	 157.948700	 6.549433	-3.219000	-57.938590	-21.505580	 2.015663	-7.667990	-37.817130	-62.843720	-25.454240	-2.027600	 6.559038	 9.033609	-5.188889	 0.308190	 3.541030	-5.234859	 0.342567	 0.430617	-0.463102	 11.499420	-4.176336	 2.475160	-20.792970	-0.495153	 97.101540	 64.153840	-160.542000	-9.614678	 6.266870	 57.179420	 5.265648	 8.596018	 33.984710	 15.436500	-61.796400	 17.849550	 1.803333	 3.979147	-15.098590	 4.898592	 3.004813	-9.310344	 5.224449	 0.395017	 2.014677
-0.032707	 0.238881	 1.079812	 0.820158	 31.216990	-5.859286	 4.814495	-76.781480	-175.680600	 4.600707	-65.793970	 4.578083	-1.917985	 76.092070	 2.041766	-2.385832	 28.452790	-0.000001	 44.668260	-75.506040	-139.726800	-14.497380	-68.213720	-8.693783	 25.169350	 74.767030	-14.242010	 2.384659	 28.388700	-0.000001	-13.157760	 13.978030	 1.497711	-2.519420	 20.912030	 3.315322	 1.022323	-2.156343	 1.191292	-98.173310	 69.192570	 158.382900	 7.007674	-1.506377	-58.444600	-21.292580	 2.015987	-7.672407	-38.502320	-63.448410	-26.100940	-2.027600	 6.559038	 9.033609	-5.188889	 0.308190	 3.541030	-5.234859	 0.342567	 0.430617	-0.686286	 8.894544	-3.598461	 2.254696	-18.265890	-0.919739	 96.943040	 64.121440	-160.977300	-10.350990	 6.532122	 56.537560	 5.137114	 8.931520	 35.296250	 15.303580	-62.075500	 18.175210	 1.803333	 3.979147	-15.098590	 4.898592	 3.004813	-9.310344	 5.224449	 0.395017	 2.014677
-0.031284	 0.238253	 1.089192	 0.779641	 30.486280	-5.598250	 3.682828	-75.165370	-176.700300	 4.301614	-64.424610	 4.257654	-1.771029	 75.524190	 1.832799	-2.385833	 28.452760	 0.000004	 39.664710	-74.333140	-144.570100	-14.157540	-66.820820	-8.294406	 24.480150	 74.310450	-13.451010	 2.384659	 28.388700	-0.000001	-13.088000	 13.808520	 1.420870	-2.451056	 21.068450	 3.176341	 0.976490	-2.807004	 1.047673	-97.734250	 69.817540	 158.824800	 7.508737	 0.300597	-58.984940	-21.056850	 2.014244	-7.673147	-39.164120	-63.761870	-26.831830	-2.027600	 6.559038	 9.033609	-5.188889	 0.308190	 3.541030	-5.234859	 0.342567	 0.430617	-0.866029	 6.093377	-3.009921	 2.039342	-15.571090	-1.380264	 96.772800	 64.240520	-161.315300	-11.099880	 7.076111	 55.921410	 4.858483	 9.176280	 36.595210	 14.830430	-62.054040	 18.187310	 1.803333	 3.979147	-15.098590	 4.898592	 3.004813	-9.310344	 5.224449	 0.395017	 2.014677
-0.029698	 0.237331	 1.098844	 0.759286	 29.748390	-5.334655	 2.776814	-73.495930	-177.487800	 4.033792	-63.004530	 3.967080	-1.588633	 74.949690	 1.607976	-2.385833	 28.452750	 0.000004	 35.294980	-73.021260	-148.772200	-13.852360	-65.386220	-7.925560	 23.862780	 73.844660	-12.702600	 2.384659	 28.388700	-0.000001	-13.012900	 13.604920	 1.330196	-2.378217	 21.160380	 3.042709	 0.926333	-3.429875	 0.900957	-97.284940	 70.466130	 159.264800	 8.041119	 2.143189	-59.509190	-20.813130	 2.010311	-7.669983	-39.572560	-63.814940	-27.387680	-2.027600	 6.559038	 9.033609	-5.188889	 0.308190	 3.541030	-5.234859	 0.342567	 0.430617	-1.016298	 3.284740	-2.445937	 1.861686	-12.870760	-1.808086	 96.595950	 64.380680	-161.659600	-11.888000	 7.662070	 55.271920	 4.542615	 9.434451	 38.031620	 14.206950	-61.755590	 18.102790	 1.803333	 3.979147	-15.098590	 4.898592	 3.004813	-9.310344	 5.224449	 0.395017	 2.014677
-0.027566	 0.236448	 1.110587	 0.742099	 28.834630	-4.951231	 1.837777	-71.456690	-178.326200	 3.910181	-61.254080	 3.795170	-1.292030	 74.284130	 1.180891	-2.385833	 28.452760	 0.000004	 30.650950	-71.320300	-153.223900	-13.637680	-63.585300	-7.615876	 23.358540	 73.290730	-11.974180	 2.384659	 28.388700	-0.000001	-12.932310	 13.408650	 1.193909	-2.282625	 21.316610	 2.802640	 0.895076	-4.236964	 0.804536	-96.360990	 71.997370	 159.724400	 8.770974	 4.854814	-60.599510	-20.476510	 2.003341	-7.662445	-39.786990	-63.605800	-27.732850	-2.027600	 6.559038	 9.033609	-5.188889	 0.308190	 3.541030	-5.234859	 0.342567	 0.430617	-1.166045	-0.204648	-2.295968	 1.797158	-9.493155	-1.905183	 96.102030	 65.323170	-162.164600	-12.862410	 9.220978	 55.178010	 4.040883	 9.599979	 39.592980	 13.508230	-61.515970	 17.891200	 1.803333	 3.979147	-15.098590	 4.898592	 3.004813	-9.310344	 5.224449	 0.395017	 2.014677
-0.025591	 0.235407	 1.121191	 0.739980	 28.035520	-4.617861	 1.174919	-69.609860	-178.901100	 3.808189	-59.638500	 3.647012	-1.049818	 73.670570	 0.840454	-2.385833	 28.452760	 0.000004	 27.162420	-69.698010	-156.539300	-13.455500	-61.925250	-7.342879	 22.876880	 72.774570	-11.265740	 2.384659	 28.388700	-0.000001	-12.858340	 13.201530	 1.073861	-2.200596	 21.380600	 2.611320	 0.863254	-4.903955	 0.712208	-95.525070	 73.332150	 160.085600	 9.468081	 7.224970	-61.543510	-20.175900	 1.995567	-7.652549	-39.666260	-63.135650	-27.839610	-2.027600	 6.559038	 9.033609	-5.188889	 0.308190	 3.541030	-5.234859	 0.342567	 0.430617	-1.288820	-3.229605	-2.176260	 1.752942	-6.568522	-1.980568	 95.675200	 66.143520	-162.605400	-13.756710	 10.581170	 55.062440	 3.576170	 9.746763	 41.080410	 12.724330	-60.994170	 17.622910	 1.803333	 3.979147	-15.098590	 4.898592	 3.004813	-9.310344	 5.224449	 0.395017	 2.014677
-0.023627	 0.234059	 1.132018	 0.772971	 27.180830	-4.273438	 0.487263	-67.661870	-179.477800	 3.778337	-57.968310	 3.558020	-0.869444	 73.021390	 0.527695	-2.385833	 28.452750	 0.000004	 24.032160	-67.923070	-159.496700	-12.869730	-60.234440	-6.714451	 22.247460	 72.293460	-10.612440	 2.384659	 28.388700	-0.000001	-12.791730	 12.992430	 0.952321	-2.131025	 21.473930	 2.392482	 0.838031	-5.647752	 0.647561	-94.631450	 74.684380	 160.461500	 10.348850	 9.442357	-62.592620	-19.835700	 1.985655	-7.639140	-39.070090	-62.341100	-27.746440	-2.027600	 6.559038	 9.033609	-5.188889	 0.308190	 3.541030	-5.234859	 0.342567	 0.430617	-1.410145	-6.561907	-2.252929	 1.730065	-3.378868	-1.950622	 95.221550	 67.032500	-163.062400	-14.752040	 11.948640	 55.032440	 3.117946	 9.887609	 42.595600	 11.626270	-60.164220	 17.076030	 1.803333	 3.979147	-15.098590	 4.898592	 3.004813	-9.310344	 5.224449	 0.395017	 2.014677
